<svg width="19" height="30" viewBox="0 0 19 30" fill="none" xmlns="http://www.w3.org/2000/svg">
<g clip-path="url(#clip0_1327_53)">
<path d="M8.66465 1.91495L8.52869 2.52996L9.78639 20.0016L9.97841 20.1655L17.8424 14.7807L8.66465 1.91495Z" fill="#8247E5"/>
<path d="M8.66449 1.91524L1.42412 15.9628L9.97825 20.1658L9.36781 11.6857L8.66449 1.91524Z" fill="#B591F0"/>
<path d="M10.0889 21.7044L9.99662 21.8334L10.4446 28.0572L10.5667 28.3415L17.9579 16.3217L10.0889 21.7044Z" fill="#8247E5"/>
<path d="M10.5657 28.3416L10.0879 21.7046L1.53394 17.504L10.5657 28.3416Z" fill="#B591F0"/>
<path d="M9.97714 20.167L17.8409 14.7823L9.3667 11.6869L9.97714 20.167Z" fill="#3C1281"/>
<path d="M1.42417 15.9649L9.97814 20.1678L9.36771 11.6877L1.42417 15.9649Z" fill="#8247E5"/>
</g>
<defs>
<clipPath id="clip0_1327_53">
<rect width="16.8336" height="27.0357" fill="white" transform="translate(0.0684814 2.19586) rotate(-4.11732)"/>
</clipPath>
</defs>
</svg>
